# xmcd
#
# Track frame offsets: 
#        150
#        33431
#        60064
#        87709
#        120704
#        138951
#
# Disc length: 2243 seconds
#
# Revision: 0
# Processed by: cddbd v1.5.2PL0 Copyright (c) Steve Scherf et al.
# Submitted via: ExactAudioCopyFreeDBPlugin 1.0
#
DISCID=4808c106
DTITLE=Dreamtime - Tidal Mind
DYEAR=2019
DGENRE=Psychedelia
TTITLE0=Mourning Star
TTITLE1=Emerald Sea
TTITLE2=Of Nautilus Descent
TTITLE3=Tidal Mind
TTITLE4=Submerged Sanctuary
TTITLE5=Liquid Light Phase
EXTD=
EXTT0=
EXTT1=
EXTT2=
EXTT3=
EXTT4=
EXTT5=
PLAYORDER=
